<svg xmlns="http://www.w3.org/2000/svg" width="21.06" height="16.923" viewBox="0 0 21.06 16.923">
  <g id="hanger" transform="translate(0 -41.842)">
    <g id="Group_6" data-name="Group 6" transform="translate(0 41.842)">
      <path id="Path_11" data-name="Path 11" d="M20.226,54.975,9.991,47.2a1.582,1.582,0,0,1-.625-1.26v-.93a1.061,1.061,0,0,1,2.121,0v1.041H13.6V45.012a3.17,3.17,0,0,0-6.34,0v.93a3.691,3.691,0,0,0,1.459,2.94l10.235,7.773H2.11l6.132-4.762L6.947,50.227.816,54.989A2.11,2.11,0,0,0,2.11,58.765H18.951a2.109,2.109,0,0,0,1.276-3.789Z" transform="translate(0 -41.842)"/>
    </g>
  </g>
</svg>
